<svg xmlns="http://www.w3.org/2000/svg" width="236.321" height="136.497" viewBox="0 0 236.321 136.497">
  <g id="CRD_logo-02" data-name="CRD logo-02" transform="translate(-17.66 -18.13)">
    <path id="Path_13595" data-name="Path 13595" d="M71.535,150.7h43.994v18.048H71.535a51.718,51.718,0,0,1-20.878-4.309,54.7,54.7,0,0,1-17.24-11.584,58.691,58.691,0,0,1-11.58-17.24,53.587,53.587,0,0,1,0-41.483A56.5,56.5,0,0,1,33.553,76.9a55.628,55.628,0,0,1,17.1-11.584A52.223,52.223,0,0,1,71.535,61H83.4L93.8,79.046H71.535a36.834,36.834,0,0,0-13.874,2.7,37.525,37.525,0,0,0-11.448,7.809A36.806,36.806,0,0,0,38.4,101a35.417,35.417,0,0,0,0,27.745,38.807,38.807,0,0,0,7.675,11.448,35.337,35.337,0,0,0,11.45,7.813A37.084,37.084,0,0,0,71.535,150.7Z" transform="translate(0 -34.537)" fill="#fff"/>
    <path id="Path_13596" data-name="Path 13596" d="M562.621,114.879a51.01,51.01,0,0,1-4.173,20.74,58.625,58.625,0,0,1-11.584,17.24,54.709,54.709,0,0,1-17.238,11.584,51.721,51.721,0,0,1-20.876,4.309H463.269l-31.251-54.007,16.025.134a18.159,18.159,0,0,0,17.914-18.043,16.717,16.717,0,0,0-5.388-12.525,17.1,17.1,0,0,0-12.527-5.248H411.236L400.77,61h47.275a34.39,34.39,0,0,1,23.553,8.84q.9.795,1.771,1.666a37.13,37.13,0,0,1,7.664,11.145,35.093,35.093,0,0,1,2.84,14.175,34.042,34.042,0,0,1-6.33,20.338,34.745,34.745,0,0,1-15.757,12.931l11.775,20.6H508.75A37.106,37.106,0,0,0,522.758,148a35.32,35.32,0,0,0,11.446-7.813,38.812,38.812,0,0,0,7.677-11.448,35.44,35.44,0,0,0,0-27.745,36.84,36.84,0,0,0-7.811-11.448,37.549,37.549,0,0,0-11.448-7.809,36.838,36.838,0,0,0-13.872-2.7h-9.407V61h9.407a52.226,52.226,0,0,1,20.876,4.315A55.628,55.628,0,0,1,546.73,76.9a56.794,56.794,0,0,1,11.718,17.238A51.019,51.019,0,0,1,562.621,114.879Z" transform="translate(-308.648 -34.537)" fill="#fff"/>
    <path id="Path_13597" data-name="Path 13597" d="M19.64,675.594a4.819,4.819,0,0,1,5.149-4.834,4.994,4.994,0,0,1,4.146,1.848l-1.967,1.749a2.5,2.5,0,0,0-2.021-1.083,2.315,2.315,0,0,0,0,4.62,2.481,2.481,0,0,0,2.021-1.083l1.967,1.749a4.989,4.989,0,0,1-4.146,1.848A4.8,4.8,0,0,1,19.64,675.594Z" transform="translate(-1.595 -525.783)" fill="#fff"/>
    <path id="Path_13598" data-name="Path 13598" d="M97.99,679.481H94.48l-.62,1.611H90.69l4.041-9.242h3.061l4.037,9.242H98.612Zm-.857-2.245-.9-2.323-.9,2.323Z" transform="translate(-58.836 -526.662)" fill="#fff"/>
    <path id="Path_13599" data-name="Path 13599" d="M179.045,678.767H178.2V681.1h-3.11v-9.25h4.453c2.575,0,4.212,1.347,4.212,3.485a3.121,3.121,0,0,1-1.749,2.915l1.944,2.851h-3.333Zm.29-4.515H178.2v2.165h1.135c.859,0,1.267-.408,1.267-1.083S180.194,674.252,179.335,674.252Z" transform="translate(-126.832 -526.662)" fill="#fff"/>
    <path id="Path_13600" data-name="Path 13600" d="M299.372,681.092l-1.6-2.733a2.544,2.544,0,0,1-.328.014h-2.087v2.721H293.59V671.85h3.856c2.389,0,3.749,1.149,3.749,3.182a3.007,3.007,0,0,1-1.835,3l2.033,3.063Zm-4.014-4.276h2.087c1.32,0,2.058-.568,2.058-1.73s-.739-1.689-2.058-1.689h-2.087Z" transform="translate(-222.3 -526.662)" fill="#fff"/>
    <path id="Path_13601" data-name="Path 13601" d="M373.932,671.85V673.4h-5v2.284h4.488v1.555h-4.488v2.332h5.162v1.545H367.16V671.85Z" transform="translate(-281.57 -526.662)" fill="#fff"/>
    <path id="Path_13602" data-name="Path 13602" d="M438.187,671.85l4.766,6.324V671.85h1.716v9.242h-1.677l-4.752-6.311v6.311h-1.73V671.85Z" transform="translate(-337.441 -526.662)" fill="#fff"/>
    <path id="Path_13603" data-name="Path 13603" d="M516.869,671.85v1.57h-2.878v7.671h-1.782V673.42H509.33v-1.57Z" transform="translate(-396.108 -526.662)" fill="#fff"/>
    <path id="Path_13604" data-name="Path 13604" d="M575.52,679.1H571l-.818,1.944H568.35L572.4,671.8h1.837l4,9.242h-1.9Zm-.63-1.518-1.609-3.887-1.638,3.887Z" transform="translate(-443.657 -526.621)" fill="#fff"/>
    <path id="Path_13605" data-name="Path 13605" d="M651.239,671.85v7.644h3.988v1.6H649.47V671.85Z" transform="translate(-509.01 -526.662)" fill="#fff"/>
    <path id="Path_13606" data-name="Path 13606" d="M760.831,676.472a4.581,4.581,0,0,1-4.884,4.62H752.17V671.85h3.843A4.547,4.547,0,0,1,760.831,676.472Zm-1.808.012a2.958,2.958,0,0,0-3.036-3.075h-2.049v6.124h2.113A2.906,2.906,0,0,0,759.023,676.484Z" transform="translate(-591.749 -526.662)" fill="#fff"/>
    <path id="Path_13607" data-name="Path 13607" d="M830.9,671.85v9.242H829.13V671.85Z" transform="translate(-653.751 -526.662)" fill="#fff"/>
    <path id="Path_13608" data-name="Path 13608" d="M876.141,671.85v7.644h3.988v1.6H874.37V671.85Z" transform="translate(-690.198 -526.662)" fill="#fff"/>
    <path id="Path_13609" data-name="Path 13609" d="M942.353,671.85V673.4h-5v2.284h4.49v1.555h-4.49v2.332h5.162v1.545H935.58V671.85Z" transform="translate(-739.511 -526.662)" fill="#fff"/>
    <path id="Path_13610" data-name="Path 13610" d="M1001.1,671.85l2.721,7.275,2.746-7.275h1.823l-3.693,9.242h-1.848l-3.656-9.242Z" transform="translate(-790.758 -526.662)" fill="#fff"/>
    <path id="Path_13611" data-name="Path 13611" d="M1078.769,671.85v9.242H1077V671.85Z" transform="translate(-853.444 -526.662)" fill="#fff"/>
    <path id="Path_13612" data-name="Path 13612" d="M1128.024,681.092l-1.6-2.733a2.572,2.572,0,0,1-.33.014h-2.085v2.721h-1.771V671.85h3.856c2.389,0,3.749,1.149,3.749,3.182a3.007,3.007,0,0,1-1.835,3l2.033,3.063Zm-4.014-4.276h2.085c1.32,0,2.06-.568,2.06-1.73s-.741-1.689-2.06-1.689h-2.085Z" transform="translate(-889.892 -526.662)" fill="#fff"/>
    <path id="Path_13613" data-name="Path 13613" d="M1194.575,678.068v3.024h-1.769v-2.958l-3.446-6.284h1.8l2.527,4.344,2.482-4.344h1.782Z" transform="translate(-943.966 -526.662)" fill="#fff"/>
    <path id="Path_13614" data-name="Path 13614" d="M546.107,496.944l-12.453,8.686-.486.338-11.969,8.35V479.57l11.969,8.35.486.338Z" transform="translate(-405.671 -371.754)" fill="#fff"/>
    <path id="Path_13615" data-name="Path 13615" d="M803.94,35.5l12.455-8.686,12.455-8.688V52.878l-12.455-8.686Z" transform="translate(-633.457)" fill="#fff"/>
  </g>
</svg>
