<svg id="receipt_long_black_24dp" xmlns="http://www.w3.org/2000/svg" width="42.774" height="42.774" viewBox="0 0 42.774 42.774">
  <path id="Path_13434" data-name="Path 13434" d="M0,0H42.774V42.774H0Z" fill="none"/>
  <g id="Group_12389" data-name="Group 12389" transform="translate(4.939 3.293)">
    <path id="Path_13435" data-name="Path 13435" d="M33.154,4.714,30.412,2,27.671,4.714,24.93,2,22.189,4.714,19.447,2,16.706,4.714,13.965,2,11.224,4.714,8.482,2V27.332H3V32.76a5.448,5.448,0,0,0,5.482,5.428h21.93a5.448,5.448,0,0,0,5.483-5.428V2ZM32.24,32.76a1.828,1.828,0,0,1-3.655,0V27.332H12.137V7.428h20.1Z" transform="translate(-3 -2)" fill="#912a51"/>
    <rect id="Rectangle_3263" data-name="Rectangle 3263" width="9.505" height="3.395" transform="translate(11.695 9.235)" fill="#912a51"/>
    <rect id="Rectangle_3264" data-name="Rectangle 3264" width="3.395" height="3.395" transform="translate(24.291 9.235)" fill="#912a51"/>
    <rect id="Rectangle_3265" data-name="Rectangle 3265" width="9.505" height="3.395" transform="translate(11.695 14.512)" fill="#912a51"/>
    <rect id="Rectangle_3266" data-name="Rectangle 3266" width="3.395" height="3.395" transform="translate(24.291 14.512)" fill="#912a51"/>
  </g>
</svg>
