<svg xmlns="http://www.w3.org/2000/svg" width="73.137" height="36.563" viewBox="0 0 73.137 36.563">
  <g id="Group_12653" data-name="Group 12653" transform="translate(-6026.928 -3649.86)">
    <path id="Path_13629" data-name="Path 13629" d="M9.7,0,5.822-9.666H3.764L0,0H2.065l.8-2.2H6.73L7.565,0ZM3.471-3.823,4.767-7.4l1.34,3.581ZM10.73-9.666V0h3.281c2.49-.007,2.958-.029,3.669-.527A2.844,2.844,0,0,0,18.822-2.8a2.343,2.343,0,0,0-1.831-2.329,2.315,2.315,0,0,0,1.362-2.1,2.377,2.377,0,0,0-1.04-1.941c-.593-.4-1.194-.5-2.717-.5Zm1.955,1.618h1.12c.915,0,1.465.007,1.655.029a.992.992,0,0,1,.989,1.069,1.016,1.016,0,0,1-.286.754c-.381.381-.681.373-2.2.373H12.685Zm0,3.845h1.567a7.039,7.039,0,0,1,1.736.132A1.164,1.164,0,0,1,16.8-2.885a1.135,1.135,0,0,1-.974,1.194,8,8,0,0,1-1.34.066h-1.8ZM28.16-9.666H26.2v5.353a10.505,10.505,0,0,1-.088,1.633C26-2.021,25.473-1.5,24.36-1.5A1.718,1.718,0,0,1,22.47-2.812,11.923,11.923,0,0,1,22.4-4.423V-9.666H20.449V-4.5a11.415,11.415,0,0,0,.2,2.453,2.743,2.743,0,0,0,.542,1.069c.549.681,1.377,1.15,3.222,1.15a4.941,4.941,0,0,0,1.867-.293,2.688,2.688,0,0,0,1.721-2,12.67,12.67,0,0,0,.161-2.468Zm3.861,0V0H35.69a4.236,4.236,0,0,0,3.1-.974,5.057,5.057,0,0,0,1.333-3.757A5.248,5.248,0,0,0,38.883-8.59c-.813-.849-1.692-1.076-3.3-1.076Zm1.948,1.64h.879a8.359,8.359,0,0,1,1.6.1,1.8,1.8,0,0,1,.908.447c.469.454.747,1.172.747,2.666a3.72,3.72,0,0,1-.7,2.7c-.417.381-.893.491-1.977.491H33.969ZM49.5,0V-9.666H47.555v3.815H43.732V-9.666H41.777V0h1.955V-4.225h3.823V0Zm10.73,0L56.352-9.666H54.294L50.53,0h2.065l.8-2.2H57.26L58.094,0ZM54-3.823,55.3-7.4l1.34,3.581ZM61.26-9.666V0H64.54c2.49-.007,2.958-.029,3.669-.527A2.844,2.844,0,0,0,69.352-2.8a2.343,2.343,0,0,0-1.831-2.329,2.315,2.315,0,0,0,1.362-2.1,2.377,2.377,0,0,0-1.04-1.941c-.593-.4-1.194-.5-2.717-.5Zm1.955,1.618h1.12c.915,0,1.465.007,1.655.029a.992.992,0,0,1,.989,1.069,1.016,1.016,0,0,1-.286.754c-.381.381-.681.373-2.2.373H63.215Zm0,3.845h1.567a7.039,7.039,0,0,1,1.736.132,1.164,1.164,0,0,1,.813,1.186,1.135,1.135,0,0,1-.974,1.194,8,8,0,0,1-1.34.066h-1.8ZM72.89,0V-9.666H70.935V0Z" transform="translate(6027.074 3686.154)" stroke="#000" stroke-width="0.2"/>
    <path id="Path_13618" data-name="Path 13618" d="M14.808-8.8a3.83,3.83,0,0,0-2.534.921,2.888,2.888,0,0,0-1.058,2.2v2.256a.677.677,0,0,1-.264.538.967.967,0,0,1-.606.23H5.631a.83.83,0,0,1-.87-.768V-8.8H2.05v5.375A2.9,2.9,0,0,0,3.1-1.219,3.781,3.781,0,0,0,5.631-.3h4.715a3.794,3.794,0,0,0,2.523-.921,2.913,2.913,0,0,0,1.058-2.208V-5.682a.832.832,0,0,1,.881-.758h1.708a.829.829,0,0,1,.87.758v2.256a2.939,2.939,0,0,0,1.047,2.208,3.707,3.707,0,0,0,2.49.921h.33V-2.659h-.33a.81.81,0,0,1-.826-.768V-5.682a2.924,2.924,0,0,0-1.058-2.2A3.843,3.843,0,0,0,16.515-8.8ZM5.8,1.536a1.483,1.483,0,0,0-.991.346A1.129,1.129,0,0,0,4.8,3.6a1.546,1.546,0,0,0,1.972,0,1.109,1.109,0,0,0,0-1.718A1.474,1.474,0,0,0,5.8,1.536Zm4.076,0a1.474,1.474,0,0,0-.98.346,1.109,1.109,0,0,0,0,1.718,1.546,1.546,0,0,0,1.972,0,1.129,1.129,0,0,0,0-1.718A1.483,1.483,0,0,0,9.872,1.536ZM26.687-8.8H23.944v5.586a.71.71,0,0,1-.672.557H21.19V-.3h2.082A3.492,3.492,0,0,0,25.3-.912,3.662,3.662,0,0,0,27.37-.3h2.06V-2.659H27.37a.677.677,0,0,1-.683-.557ZM25.332,1.564a1.474,1.474,0,0,0-.98.346,1.109,1.109,0,0,0,0,1.718,1.546,1.546,0,0,0,1.972,0,1.129,1.129,0,0,0,0-1.718A1.483,1.483,0,0,0,25.332,1.564ZM37.683-13.073a1.474,1.474,0,0,0-.98.346,1.13,1.13,0,0,0-.408.864,1.125,1.125,0,0,0,.408.854,1.481,1.481,0,0,0,.98.355,1.489,1.489,0,0,0,.991-.355,1.115,1.115,0,0,0,.4-.854,1.12,1.12,0,0,0-.4-.864A1.483,1.483,0,0,0,37.683-13.073Zm-3.481.038h-2.71V-2.659H29.365V-.3h10.84a3.815,3.815,0,0,0,2.523-.921,2.924,2.924,0,0,0,1.058-2.2V-5.673A2.944,2.944,0,0,0,42.728-7.88,3.865,3.865,0,0,0,40.206-8.8h-5.09a4.661,4.661,0,0,0-.914.086Zm6,6.594a.836.836,0,0,1,.87.768v2.256a.687.687,0,0,1-.264.528.967.967,0,0,1-.606.23H34.235V-5.673a.847.847,0,0,1,.881-.768ZM52.426-8.8A3.865,3.865,0,0,0,49.9-7.88a2.944,2.944,0,0,0-1.058,2.208v2.256a2.924,2.924,0,0,0,1.058,2.2A3.815,3.815,0,0,0,52.426-.3h3.669V.8a.721.721,0,0,1-.264.538.974.974,0,0,1-.628.23H52.4V3.926h2.8A3.873,3.873,0,0,0,57.736,3,2.944,2.944,0,0,0,58.793.8V-.3h2.049V-2.659H58.793V-5.673A2.944,2.944,0,0,0,57.736-7.88,3.873,3.873,0,0,0,55.2-8.8ZM55.2-6.441a.974.974,0,0,1,.628.23.721.721,0,0,1,.264.538v3.014H52.426a.967.967,0,0,1-.606-.23.687.687,0,0,1-.264-.528V-5.673a.836.836,0,0,1,.87-.768ZM66.959-8.8h-2.71v5.385a.749.749,0,0,1-.716.758H60.779V-.3h2.754a3.517,3.517,0,0,0,2.424-.921,2.985,2.985,0,0,0,1-2.2ZM65.549,1.564a1.474,1.474,0,0,0-.98.346,1.109,1.109,0,0,0,0,1.718,1.546,1.546,0,0,0,1.972,0,1.129,1.129,0,0,0,0-1.718A1.483,1.483,0,0,0,65.549,1.564Zm6.8-18.371v-.749H70.794a1.145,1.145,0,0,0-.782.288.945.945,0,0,0-.33.691v.7a.627.627,0,0,0,.033.25h-.441v.729h3.074v-.729H70.794a.259.259,0,0,1-.264-.25v-.7a.245.245,0,0,1,.264-.23ZM72.171-.3V-13.035h-2.71V-.3Z" transform="translate(6026.95 3667.415)"/>
  </g>
</svg>
