<svg xmlns="http://www.w3.org/2000/svg" width="54.146" height="37.035" viewBox="0 0 54.146 37.035">
  <g id="Group_12655" data-name="Group 12655" transform="translate(-6036.427 -3727.34)">
    <path id="Path_13628" data-name="Path 13628" d="M10.988,0,6.6-10.955H4.266L0,0H2.34l.9-2.49H7.627L8.573,0ZM3.934-4.332,5.4-8.391,6.922-4.332ZM18.31-10.955H16.1v7.088c0,1.759-.357,2.166-1.353,2.166a1.182,1.182,0,0,1-1.087-.589,2.794,2.794,0,0,1-.282-1.328L11.3-3.386c.025,2.349,1.22,3.577,3.378,3.577A3.832,3.832,0,0,0,16.9-.39c1.129-.772,1.411-1.826,1.411-3.627ZM31.2,0V-10.955h-3.32L25.914-3.486,23.93-10.955H20.619V0h2.058V-8.615L24.843,0h2.125l2.183-8.615V0ZM43.278,0l-4.39-10.955H36.556L32.29,0h2.34l.9-2.49h4.382L40.863,0ZM36.224-4.332l1.469-4.058,1.519,4.058ZM53.148,0V-10.955H51.1v7.32l-4.482-7.32H44.459V0h2.058V-7.146L50.932,0Z" transform="translate(6036.573 3764.084)" stroke="#000" stroke-width="0.2"/>
    <path id="Path_13619" data-name="Path 13619" d="M7.216-12.976a1.319,1.319,0,0,0-.977.428,1.48,1.48,0,0,0-.391,1.029,1.488,1.488,0,0,0,.391,1.04,1.309,1.309,0,0,0,.977.416,1.3,1.3,0,0,0,.966-.416,1.5,1.5,0,0,0,.4-1.04,1.488,1.488,0,0,0-.4-1.029A1.313,1.313,0,0,0,7.216-12.976Zm5.611,5.131h-2.67V3.689a.9.9,0,0,1-.26.636.886.886,0,0,1-.608.277H5.578a.9.9,0,0,1-.857-.913V-2.76H2.05V3.689A3.855,3.855,0,0,0,3.081,6.335a3.355,3.355,0,0,0,2.5,1.109H9.289a3.427,3.427,0,0,0,2.5-1.109,3.864,3.864,0,0,0,1.042-2.647Zm4.951-5.108h-2.67v11.58A3.864,3.864,0,0,0,16.15,1.273a3.385,3.385,0,0,0,2.485,1.109H19.97V-.46H18.636a.862.862,0,0,1-.6-.277.9.9,0,0,1-.26-.636Zm7.652,5.1a3.434,3.434,0,0,0-2.5,1.109,3.893,3.893,0,0,0-1.042,2.658V-.46H19.906V2.383H33.581V-.46H31.595a3.97,3.97,0,0,0,.1-.913V-4.089a3.893,3.893,0,0,0-1.042-2.658,3.41,3.41,0,0,0-2.485-1.109Zm2.735,2.843a.906.906,0,0,1,.857.925v2.716a.9.9,0,0,1-.26.636.862.862,0,0,1-.6.277h-3.6V-4.089a1,1,0,0,1,.26-.647.787.787,0,0,1,.608-.277ZM35.5-7.857v2.843h4.873a.822.822,0,0,1,.608.277.993.993,0,0,1,.25.647v2.716a.9.9,0,0,1-.857.913H33.518V2.383H45.792V-.46H43.806a3.971,3.971,0,0,0,.1-.913V-4.089a3.893,3.893,0,0,0-1.042-2.658,3.41,3.41,0,0,0-2.485-1.109ZM39,4.625a1.309,1.309,0,0,0-.977.416,1.488,1.488,0,0,0-.391,1.04,1.48,1.48,0,0,0,.391,1.029,1.317,1.317,0,0,0,1.943,0,1.533,1.533,0,0,0,0-2.069A1.3,1.3,0,0,0,39,4.625ZM56.05-5.014V-7.857H51.188a3.434,3.434,0,0,0-2.5,1.109A3.893,3.893,0,0,0,47.65-4.089v2.716a3.971,3.971,0,0,0,.1.913H45.729V2.383H56.05V-.46H51.188a.9.9,0,0,1-.868-.913V-4.089a1,1,0,0,1,.26-.647.787.787,0,0,1,.608-.277Z" transform="translate(6034.523 3740.317)"/>
  </g>
</svg>
