<svg xmlns="http://www.w3.org/2000/svg" width="59" height="46.653" viewBox="0 0 59 46.653">
  <g id="Group_12654" data-name="Group 12654" transform="translate(-6043.813 -3602.889)">
    <path id="Path_13616" data-name="Path 13616" d="M23.685-12.111a6.179,6.179,0,0,0-4.134,1.532,4.838,4.838,0,0,0-1.726,3.655v3.751a1.133,1.133,0,0,1-.431.894,1.561,1.561,0,0,1-.989.383H8.712a1.363,1.363,0,0,1-1.42-1.277v-8.939H2.871v8.939A4.864,4.864,0,0,0,4.578.5,6.1,6.1,0,0,0,8.712,2.032h7.693A6.122,6.122,0,0,0,20.522.5a4.881,4.881,0,0,0,1.726-3.671V-6.923a1.367,1.367,0,0,1,1.438-1.261h2.786a1.362,1.362,0,0,1,1.42,1.261v3.751A4.926,4.926,0,0,0,29.6.5a5.983,5.983,0,0,0,4.062,1.532H34.2V-1.9h-.539a1.333,1.333,0,0,1-1.348-1.277V-6.923a4.9,4.9,0,0,0-1.726-3.655,6.2,6.2,0,0,0-4.116-1.532ZM8.982,5.081a2.392,2.392,0,0,0-1.618.575,1.9,1.9,0,0,0,0,2.857,2.486,2.486,0,0,0,3.217,0,1.867,1.867,0,0,0,0-2.857A2.378,2.378,0,0,0,8.982,5.081Zm6.651,0a2.378,2.378,0,0,0-1.6.575,1.867,1.867,0,0,0,0,2.857,2.486,2.486,0,0,0,3.217,0,1.9,1.9,0,0,0,0-2.857A2.392,2.392,0,0,0,15.633,5.081ZM44.182-12.111H39.76v8.955A1.235,1.235,0,0,1,38.592-1.9H34.1V2.032h4.494A5.678,5.678,0,0,0,42.546.5a5.006,5.006,0,0,0,1.636-3.655Zm-2.3,17.24a2.378,2.378,0,0,0-1.6.575,1.867,1.867,0,0,0,0,2.857,2.486,2.486,0,0,0,3.217,0,1.9,1.9,0,0,0,0-2.857A2.392,2.392,0,0,0,41.881,5.129ZM49.756-12.1v3.927h6.255a1.571,1.571,0,0,1,1.025.383,1.207,1.207,0,0,1,.431.894v3.735a1.15,1.15,0,0,1-.431.878,1.66,1.66,0,0,1-1.025.383H47.958V2.032h8.053A6.168,6.168,0,0,0,60.145.5a4.9,4.9,0,0,0,1.726-3.655V-6.891a4.933,4.933,0,0,0-1.726-3.671A6.248,6.248,0,0,0,56.011-12.1Z" transform="translate(6040.943 3615)"/>
    <text id="Dubai" transform="translate(6043.813 3643.542)" font-size="20" font-family="AraESNawar-Regular, Nawar Font"><tspan x="0" y="0">DUBAI</tspan></text>
  </g>
</svg>
