<svg xmlns="http://www.w3.org/2000/svg" width="68.007" height="33.964" viewBox="0 0 68.007 33.964">
  <g id="Group_12658" data-name="Group 12658" transform="translate(-6023.252 -3791.965)">
    <path id="Path_13627" data-name="Path 13627" d="M8.11-11.21v-1.679H1.328V-3H3.321V-7.2H7.443V-8.872H3.321V-11.21Zm9.518-1.679h-2v5.478a10.75,10.75,0,0,1-.09,1.671c-.12.674-.659,1.206-1.8,1.206a1.758,1.758,0,0,1-1.933-1.341,12.2,12.2,0,0,1-.067-1.649v-5.365h-2v5.283a11.681,11.681,0,0,0,.2,2.51A2.806,2.806,0,0,0,10.494-4c.562.7,1.409,1.176,3.3,1.176a5.056,5.056,0,0,0,1.911-.3A2.751,2.751,0,0,0,17.463-5.17,12.965,12.965,0,0,0,17.628-7.7Zm7.653,0H23.287v6.4c0,1.589-.322,1.956-1.221,1.956a1.067,1.067,0,0,1-.982-.532,2.523,2.523,0,0,1-.255-1.2l-1.881.21c.022,2.121,1.1,3.23,3.05,3.23a3.46,3.46,0,0,0,2.008-.525c1.019-.7,1.274-1.649,1.274-3.275ZM36.312-3l-3.964-9.892H30.243L26.391-3H28.5l.817-2.248h3.957L34.132-3Zm-6.37-3.912,1.326-3.664,1.371,3.664ZM39.3-3v-9.892h-2V-3Zm1.9-9.892V-3h2V-7.118h.4a1.843,1.843,0,0,1,1.6.517A14.211,14.211,0,0,1,46.259-5.14L47.7-3h2.39L48.874-4.93a5.537,5.537,0,0,0-2.2-2.428,2.662,2.662,0,0,0,2.608-2.75,2.88,2.88,0,0,0-.427-1.559c-.57-.907-1.341-1.221-3.447-1.221Zm2,1.679h1.551c.809,0,1.3.007,1.461.03a1.127,1.127,0,0,1,1.012,1.191,1.116,1.116,0,0,1-.757,1.162,7.622,7.622,0,0,1-1.8.12H43.2ZM60.079-3l-3.964-9.892H54.009L50.157-3H52.27l.817-2.248h3.957L57.9-3Zm-6.37-3.912,1.326-3.664,1.371,3.664ZM69.035-3v-9.892H67.049v3.9H63.138v-3.9h-2V-3h2V-7.321h3.912V-3Z" transform="translate(6022.074 3828.604)" stroke="#000" stroke-width="0.3"/>
    <path id="Path_13620" data-name="Path 13620" d="M5.828-12.976a2.129,2.129,0,0,0-1.278.39,1.159,1.159,0,0,0-.511.938,1.163,1.163,0,0,0,.511.949,2.125,2.125,0,0,0,1.278.379A2.125,2.125,0,0,0,7.105-10.7a1.163,1.163,0,0,0,.511-.949,1.159,1.159,0,0,0-.511-.938A2.129,2.129,0,0,0,5.828-12.976Zm5.282,0a2.129,2.129,0,0,0-1.278.39,1.159,1.159,0,0,0-.511.938,1.163,1.163,0,0,0,.511.949,2.125,2.125,0,0,0,1.278.379,2.111,2.111,0,0,0,1.264-.379,1.179,1.179,0,0,0,.525-.949,1.175,1.175,0,0,0-.525-.938A2.116,2.116,0,0,0,11.11-12.976ZM6.665-8.3A5.49,5.49,0,0,0,3.414-7.284,3.037,3.037,0,0,0,2.05-4.86v2.466A3.019,3.019,0,0,0,3.414.02,5.418,5.418,0,0,0,6.665,1.032h3.578A5.462,5.462,0,0,0,13.509.02a3.057,3.057,0,0,0,1.363-2.414V-4.86a3.075,3.075,0,0,0-1.363-2.424A5.534,5.534,0,0,0,10.244-8.3ZM10.244-5.7a1.359,1.359,0,0,1,.809.253.778.778,0,0,1,.327.59v2.466c0,.453-.511.833-1.136.833H6.665a1.378,1.378,0,0,1-.781-.253.722.722,0,0,1-.341-.58V-4.86c0-.453.511-.843,1.122-.843ZM24.829-1.561V-8.307H21.336V2.233c0,.453-.525.843-1.136.843H16.75V5.669H20.2a5.534,5.534,0,0,0,3.266-1.012,3.075,3.075,0,0,0,1.363-2.424v-1.2h2.6V-1.561Zm9.828-6.745H31.122v6.134a.911.911,0,0,1-.88.611h-2.9V1.032h2.9A5.159,5.159,0,0,0,32.868.357a5.268,5.268,0,0,0,2.655.675h2.882V-1.561H35.523a.845.845,0,0,1-.866-.611Zm-4.4,11.351a2.111,2.111,0,0,0-1.264.379,1.179,1.179,0,0,0-.525.949,1.175,1.175,0,0,0,.525.938,2.266,2.266,0,0,0,2.542,0,1.126,1.126,0,0,0,0-1.887A2.125,2.125,0,0,0,30.255,3.045Zm5.268,0a2.125,2.125,0,0,0-1.278.379,1.126,1.126,0,0,0,0,1.887,2.289,2.289,0,0,0,2.556,0,1.126,1.126,0,0,0,0-1.887A2.125,2.125,0,0,0,35.523,3.045Zm5.4-11.351v2.593H47.3a1.316,1.316,0,0,1,.8.253.778.778,0,0,1,.327.59v2.477c0,.453-.511.833-1.122.833H38.323V1.032h16.06V-1.561h-2.6a2.579,2.579,0,0,0,.128-.833V-4.871a3.075,3.075,0,0,0-1.363-2.424A5.49,5.49,0,0,0,47.3-8.307ZM45.493,3.076a2.125,2.125,0,0,0-1.278.379,1.126,1.126,0,0,0,0,1.887,2.266,2.266,0,0,0,2.542,0,1.175,1.175,0,0,0,.525-.938,1.179,1.179,0,0,0-.525-.949A2.111,2.111,0,0,0,45.493,3.076ZM63.16-12.986a2.111,2.111,0,0,0-1.264.379,1.179,1.179,0,0,0-.525.949,1.175,1.175,0,0,0,.525.938,2.116,2.116,0,0,0,1.264.39,2.129,2.129,0,0,0,1.278-.39,1.159,1.159,0,0,0,.511-.938,1.163,1.163,0,0,0-.511-.949A2.125,2.125,0,0,0,63.16-12.986Zm-1.818,4.68a5.484,5.484,0,0,0-3.252,1,3.052,3.052,0,0,0-1.363,2.424V-2.4a2.646,2.646,0,0,0,.128.843H54.3V1.032H64.978A6.216,6.216,0,0,0,68.272.167a2.566,2.566,0,0,0,1.363-2.076V-4.881a3.091,3.091,0,0,0-1.363-2.424,5.529,5.529,0,0,0-3.266-1Zm3.663,2.593c.611,0,1.136.379,1.136.833v3.32h-4.8a1.347,1.347,0,0,1-.8-.253.735.735,0,0,1-.355-.59V-4.881a.719.719,0,0,1,.355-.58,1.347,1.347,0,0,1,.8-.253Z" transform="translate(6021.46 3804.951)"/>
  </g>
</svg>
