<svg xmlns="http://www.w3.org/2000/svg" width="97.834" height="33.498" viewBox="0 0 97.834 33.498">
  <g id="Group_12660" data-name="Group 12660" transform="translate(-5994.408 -3849.658)">
    <path id="Path_13630" data-name="Path 13630" d="M.593-5.757V2.587H2.281V-.89h.341a1.554,1.554,0,0,1,1.353.436A11.988,11.988,0,0,1,4.86.779L6.074,2.587H8.09L7.066.956A4.671,4.671,0,0,0,5.208-1.092a2.245,2.245,0,0,0,2.2-2.32,2.43,2.43,0,0,0-.36-1.315c-.48-.765-1.132-1.03-2.908-1.03ZM2.281-4.341H3.59c.683,0,1.094.006,1.233.025a.951.951,0,0,1,.853,1.005.942.942,0,0,1-.638.98,6.43,6.43,0,0,1-1.517.1H2.281ZM16.518,2.587,13.174-5.757H11.4L8.149,2.587H9.931l.689-1.9h3.338l.721,1.9Zm-5.373-3.3L12.264-3.8,13.421-.713Zm5.83.588c.228,1.865,1.34,2.864,3.439,2.864a4.671,4.671,0,0,0,1.827-.31A2.442,2.442,0,0,0,23.764.16a2.5,2.5,0,0,0-.335-1.334c-.455-.708-1.106-1.056-2.744-1.448a4.584,4.584,0,0,1-1.549-.556.631.631,0,0,1-.247-.5.628.628,0,0,1,.266-.525,1.906,1.906,0,0,1,1.144-.3c.955,0,1.384.354,1.536,1.214l1.682-.076c-.051-1.523-1.1-2.529-3.2-2.529a4.121,4.121,0,0,0-1.637.291,2.21,2.21,0,0,0-1.4,2.042c0,1.315.86,2.048,2.674,2.5Q21-.8,21.3-.7c.563.2.778.474.778.86,0,.626-.556,1.157-1.644,1.157a1.693,1.693,0,0,1-1.821-1.6Zm17.3,2.712L30.934-5.757H29.158L25.909,2.587h1.783l.689-1.9h3.338l.721,1.9Zm-5.373-3.3L30.024-3.8,31.181-.713Zm7.992,1.9V-5.682H35.209V2.587h5.866v-1.4ZM48.094-2.5l3.135-3.256H48.966L45.559-2.047V-5.757H43.884V2.587h1.675V.065l1.365-1.391,2.295,3.913H51.4ZM58.937,2.587V-5.757H57.261v3.294h-3.3V-5.757H52.274V2.587h1.688V-1.061h3.3V2.587Zm9.262,0L64.855-5.757H63.079L59.829,2.587h1.783L62.3.691h3.338l.721,1.9Zm-5.373-3.3L63.945-3.8,65.1-.713Zm7.9,3.3V-5.757H69.035V2.587Zm9.628,0V-5.757H77.822l-1.5,5.689L74.813-5.757H72.291V2.587h1.568V-3.975l1.65,6.562h1.618L78.79-3.975V2.587Zm9.2,0L86.206-5.757H84.43L81.181,2.587h1.783l.689-1.9H86.99l.721,1.9Zm-5.373-3.3L85.3-3.8,86.453-.713Zm12.929,3.3V-5.757H95.431v3.294h-3.3V-5.757H90.443V2.587h1.688V-1.061h3.3V2.587Z" transform="translate(5994.668 3880.317)" stroke="#000" stroke-width="0.2"/>
    <path id="Path_13622" data-name="Path 13622" d="M5.057-13.477a1.623,1.623,0,0,0-1.006.322.97.97,0,0,0-.4.774.973.973,0,0,0,.4.783,1.619,1.619,0,0,0,1.006.313A1.619,1.619,0,0,0,6.062-11.6a.973.973,0,0,0,.4-.783.97.97,0,0,0-.4-.774A1.623,1.623,0,0,0,5.057-13.477Zm4.157,0a1.623,1.623,0,0,0-1.006.322.97.97,0,0,0-.4.774.973.973,0,0,0,.4.783,1.619,1.619,0,0,0,1.006.313,1.608,1.608,0,0,0,.995-.313.985.985,0,0,0,.413-.783.981.981,0,0,0-.413-.774A1.613,1.613,0,0,0,9.214-13.477ZM5.694-9.625a4.219,4.219,0,0,0-2.57.835,2.568,2.568,0,0,0-1.073,2v2.044A2.552,2.552,0,0,0,3.123-2.755a4.164,4.164,0,0,0,2.57.835h8.393V-4.06H12.041a2.223,2.223,0,0,0,.1-.687V-6.79a2.568,2.568,0,0,0-1.073-2A4.185,4.185,0,0,0,8.51-9.625ZM8.51-7.486a1,1,0,0,1,.626.209.651.651,0,0,1,.257.487v2.044a.812.812,0,0,1-.883.687H5.694a1.086,1.086,0,0,1-.626-.209A.6.6,0,0,1,4.8-4.747V-6.79a.83.83,0,0,1,.894-.7Zm11.2-2.139a4.219,4.219,0,0,0-2.57.835,2.568,2.568,0,0,0-1.073,2v2.73H14.022v2.139H28.1V-4.06H26.058a2.223,2.223,0,0,0,.1-.687V-6.79a2.568,2.568,0,0,0-1.073-2,4.185,4.185,0,0,0-2.559-.835Zm2.816,2.139a.818.818,0,0,1,.883.7v2.044a.6.6,0,0,1-.268.478,1.051,1.051,0,0,1-.615.209h-3.71V-6.79a.665.665,0,0,1,.268-.487.958.958,0,0,1,.626-.209ZM33.793-9.625H31.011v5.061a.719.719,0,0,1-.693.5h-2.28v2.139h2.28a3.916,3.916,0,0,0,2.067-.557,4,4,0,0,0,2.09.557h2.269V-4.06H34.475a.668.668,0,0,1-.682-.5ZM30.329-.26a1.608,1.608,0,0,0-.995.313.985.985,0,0,0-.413.783.981.981,0,0,0,.413.774,1.613,1.613,0,0,0,.995.322,1.623,1.623,0,0,0,1.006-.322.97.97,0,0,0,.4-.774.973.973,0,0,0-.4-.783A1.619,1.619,0,0,0,30.329-.26Zm4.146,0a1.619,1.619,0,0,0-1.006.313.973.973,0,0,0-.4.783.97.97,0,0,0,.4.774,1.733,1.733,0,0,0,2.012,0,.97.97,0,0,0,.4-.774.973.973,0,0,0-.4-.783A1.619,1.619,0,0,0,34.475-.26Zm7.835-13.235a1.608,1.608,0,0,0-.995.313.985.985,0,0,0-.413.783.981.981,0,0,0,.413.774,1.613,1.613,0,0,0,.995.322,1.623,1.623,0,0,0,1.006-.322.97.97,0,0,0,.4-.774.973.973,0,0,0-.4-.783A1.619,1.619,0,0,0,42.311-13.495Zm-3.587,3.87v2.139H43.73a1.036,1.036,0,0,1,.637.209.651.651,0,0,1,.257.487v2.044a.817.817,0,0,1-.894.687H36.678v2.139H49.318V-4.06H47.272a2.222,2.222,0,0,0,.1-.687V-6.79a2.568,2.568,0,0,0-1.073-2,4.219,4.219,0,0,0-2.57-.835ZM55.1-13.46H52.348v8.713a.812.812,0,0,1-.883.687H49.253v2.139h2.213a4.131,4.131,0,0,0,2.559-.835A2.552,2.552,0,0,0,55.1-4.747Zm5.1,11.539V-13.46H57.445V-1.921Zm26.4-7.687H83.843v4.87a.6.6,0,0,1-.268.478,1.15,1.15,0,0,1-.637.209H82.4a1.068,1.068,0,0,1-.637-.209.6.6,0,0,1-.268-.478v-4.87H78.758v4.87a.6.6,0,0,1-.268.478,1.121,1.121,0,0,1-.637.209h-.536a1.088,1.088,0,0,1-.6-.183.573.573,0,0,1-.3-.426V-9.608H73.662v8.67a.812.812,0,0,1-.883.687H68.957a.971.971,0,0,1-.615-.209.648.648,0,0,1-.268-.478V-5.782H65.325V-.938A2.533,2.533,0,0,0,66.4,1.053a4.185,4.185,0,0,0,2.559.835h3.822a4.21,4.21,0,0,0,2.559-.835A2.565,2.565,0,0,0,76.411-.938V-2a4.482,4.482,0,0,0,.905.087h.536a4.5,4.5,0,0,0,2.28-.609,4.34,4.34,0,0,0,2.269.609h.536a4.221,4.221,0,0,0,2.582-.835,2.552,2.552,0,0,0,1.073-1.991Zm5.469-7.27v-.678H90.485a1.245,1.245,0,0,0-.793.261.824.824,0,0,0-.335.626v.635a.512.512,0,0,0,.034.226h-.447v.661h3.118v-.661H90.485a.251.251,0,0,1-.268-.226v-.635c0-.1.1-.209.268-.209ZM91.882-1.921V-13.46H89.133V-1.921Zm8-7.7H97.135V-.929a.818.818,0,0,1-.883.7H93.537V1.905h2.716a4.21,4.21,0,0,0,2.559-.835,2.568,2.568,0,0,0,1.073-2Z" transform="translate(5992.357 3867.213)"/>
  </g>
</svg>
