<svg xmlns="http://www.w3.org/2000/svg" width="64.015" height="33.102" viewBox="0 0 64.015 33.102">
  <g id="Group_12662" data-name="Group 12662" transform="translate(-6028.236 -3925.358)">
    <path id="Path_13631" data-name="Path 13631" d="M.483-3.142C.747-.981,2.036.176,4.467.176A5.411,5.411,0,0,0,6.583-.183,2.829,2.829,0,0,0,8.348-2.812,2.9,2.9,0,0,0,7.96-4.357c-.527-.82-1.282-1.223-3.178-1.677a5.31,5.31,0,0,1-1.794-.644A.731.731,0,0,1,2.7-7.257a.727.727,0,0,1,.308-.608,2.208,2.208,0,0,1,1.325-.352c1.106,0,1.6.41,1.779,1.406L8.063-6.9C8-8.663,6.788-9.827,4.357-9.827a4.774,4.774,0,0,0-1.9.337A2.56,2.56,0,0,0,.835-7.125c0,1.523,1,2.373,3.1,2.9q1.219.3,1.56.417c.652.234.9.549.9,1,0,.725-.644,1.34-1.9,1.34A1.962,1.962,0,0,1,2.38-3.325ZM17.716,0V-9.666H15.775v3.815H11.953V-9.666H10V0h1.955V-4.225h3.823V0Zm10.73,0L24.572-9.666H22.514L18.75,0h2.065l.8-2.2H25.48L26.315,0ZM22.221-3.823l1.3-3.581,1.34,3.581ZM29.48-9.666V0h1.955V-4.028h.4a1.8,1.8,0,0,1,1.567.505,13.887,13.887,0,0,1,1.025,1.428L35.829,0h2.336L36.979-1.889a5.411,5.411,0,0,0-2.153-2.373A2.6,2.6,0,0,0,37.374-6.95a2.815,2.815,0,0,0-.417-1.523c-.557-.886-1.311-1.194-3.369-1.194Zm1.955,1.64h1.516c.791,0,1.267.007,1.428.029a1.1,1.1,0,0,1,.989,1.164,1.091,1.091,0,0,1-.74,1.135,7.448,7.448,0,0,1-1.758.117H31.435Zm13.212-1.64H42.7v6.254c0,1.552-.315,1.911-1.194,1.911a1.043,1.043,0,0,1-.959-.52A2.465,2.465,0,0,1,40.3-3.193l-1.838.205C38.481-.915,39.536.168,41.44.168A3.381,3.381,0,0,0,43.4-.344c1-.681,1.245-1.611,1.245-3.2ZM55.428,0,51.554-9.666H49.5L45.732,0H47.8l.8-2.2h3.867L53.3,0ZM49.2-3.823,50.5-7.4l1.34,3.581ZM64.181,0V-9.666H62.24v3.815H58.417V-9.666H56.462V0h1.955V-4.225H62.24V0Z" transform="translate(6027.809 3958.235)" stroke="#000" stroke-width="0.1"/>
    <path id="Path_13624" data-name="Path 13624" d="M4.826-13.148a1.381,1.381,0,0,0-.929.338A1.069,1.069,0,0,0,3.526-12a1.074,1.074,0,0,0,.372.823,1.375,1.375,0,0,0,.929.329,1.375,1.375,0,0,0,.929-.329A1.074,1.074,0,0,0,6.127-12a1.069,1.069,0,0,0-.372-.814A1.381,1.381,0,0,0,4.826-13.148Zm3.839,0a1.381,1.381,0,0,0-.929.338A1.069,1.069,0,0,0,7.365-12a1.074,1.074,0,0,0,.372.823,1.375,1.375,0,0,0,.929.329,1.367,1.367,0,0,0,.918-.329A1.084,1.084,0,0,0,9.966-12a1.079,1.079,0,0,0-.382-.814A1.373,1.373,0,0,0,8.665-13.148ZM5.415-9.1a3.592,3.592,0,0,0-2.374.878,2.823,2.823,0,0,0-.991,2.1v2.149a2.8,2.8,0,0,0,.991,2.094A3.546,3.546,0,0,0,5.415-1h7.75V-3.246H11.276a2.638,2.638,0,0,0,.093-.722V-6.117a2.823,2.823,0,0,0-.991-2.1A3.565,3.565,0,0,0,8.015-9.1Zm2.6,2.249a.856.856,0,0,1,.578.219.718.718,0,0,1,.237.512v2.149a.781.781,0,0,1-.815.722h-2.6a.926.926,0,0,1-.578-.219.658.658,0,0,1-.248-.5V-6.117a.8.8,0,0,1,.826-.731Zm9.662-6.3a1.381,1.381,0,0,0-.929.338,1.069,1.069,0,0,0-.372.814,1.074,1.074,0,0,0,.372.823,1.375,1.375,0,0,0,.929.329,1.375,1.375,0,0,0,.929-.329A1.074,1.074,0,0,0,18.977-12a1.069,1.069,0,0,0-.372-.814A1.381,1.381,0,0,0,17.677-13.148Zm3.839,0a1.381,1.381,0,0,0-.929.338,1.069,1.069,0,0,0-.372.814,1.074,1.074,0,0,0,.372.823,1.375,1.375,0,0,0,.929.329,1.367,1.367,0,0,0,.918-.329A1.084,1.084,0,0,0,22.816-12a1.079,1.079,0,0,0-.382-.814A1.373,1.373,0,0,0,21.516-13.148ZM18.224-9.1a3.558,3.558,0,0,0-2.363.869,2.8,2.8,0,0,0-.991,2.1v2.149a2.706,2.706,0,0,0,.093.731H13.105V-1h7.761a3.973,3.973,0,0,0,2.394-.75,2.293,2.293,0,0,0,.991-1.8V-6.126a2.838,2.838,0,0,0-.991-2.1A3.586,3.586,0,0,0,20.886-9.1Zm2.663,2.249a.791.791,0,0,1,.826.722v2.88H18.224a.876.876,0,0,1-.578-.219.668.668,0,0,1-.258-.512V-6.126a.651.651,0,0,1,.258-.5.876.876,0,0,1,.578-.219Zm10.59-2.24H28.938V.046a.788.788,0,0,1-.815.731H25.615V3.026h2.508a3.585,3.585,0,0,0,2.363-.878,2.823,2.823,0,0,0,.991-2.1Zm4.707-4.041H33.645v9.162a2.8,2.8,0,0,0,.991,2.094A3.539,3.539,0,0,0,37-1h1.269V-3.246H37a.9.9,0,0,1-.568-.219.658.658,0,0,1-.248-.5Zm10.693-2.551a1.381,1.381,0,0,0-.929.338,1.069,1.069,0,0,0-.372.814,1.074,1.074,0,0,0,.372.823,1.375,1.375,0,0,0,.929.329,1.367,1.367,0,0,0,.918-.329,1.084,1.084,0,0,0,.382-.823,1.079,1.079,0,0,0-.382-.814A1.373,1.373,0,0,0,46.876-15.681Zm-1.919,2.524a1.373,1.373,0,0,0-.918.338,1.079,1.079,0,0,0-.382.814,1.084,1.084,0,0,0,.382.823,1.367,1.367,0,0,0,.918.329,1.375,1.375,0,0,0,.929-.329,1.074,1.074,0,0,0,.372-.823,1.069,1.069,0,0,0-.372-.814A1.381,1.381,0,0,0,44.957-13.157Zm3.839,0a1.373,1.373,0,0,0-.918.338,1.079,1.079,0,0,0-.382.814,1.084,1.084,0,0,0,.382.823,1.367,1.367,0,0,0,.918.329,1.375,1.375,0,0,0,.929-.329,1.074,1.074,0,0,0,.372-.823,1.069,1.069,0,0,0-.372-.814A1.381,1.381,0,0,0,48.8-13.157ZM52.934-9.1H50.4v5.129a.781.781,0,0,1-.815.722h-.516a.9.9,0,0,1-.568-.219.658.658,0,0,1-.248-.5V-9.1H45.71v5.129a.784.784,0,0,1-.826.722h-.506a.784.784,0,0,1-.826-.722V-9.1H41.014v5.129a.746.746,0,0,1-.815.722H38.156V-1H40.2a3.61,3.61,0,0,0,2.116-.64A3.387,3.387,0,0,0,44.379-1h.506a3.72,3.72,0,0,0,2.095-.64A3.711,3.711,0,0,0,49.064-1h.516a3.576,3.576,0,0,0,2.064-.64A3.556,3.556,0,0,0,53.749-1h2.043V-3.246H53.749a.746.746,0,0,1-.815-.722Zm8.145-4.032H58.541v9.162a.781.781,0,0,1-.815.722H55.682V-1h2.043a3.519,3.519,0,0,0,2.363-.878,2.8,2.8,0,0,0,.991-2.094ZM65.786-1V-13.13H63.247V-1Z" transform="translate(6026.465 3941.039)"/>
  </g>
</svg>
