<svg xmlns="http://www.w3.org/2000/svg" width="82.713" height="33.942" viewBox="0 0 82.713 33.942">
  <g id="Group_12663" data-name="Group 12663" transform="translate(-6025.074 -3975.94)">
    <path id="Path_13632" data-name="Path 13632" d="M6.378-5.775H4.908V-1.75A7.9,7.9,0,0,1,4.842-.522c-.088.5-.485.887-1.322.887A1.292,1.292,0,0,1,2.1-.621a8.965,8.965,0,0,1-.05-1.211V-5.775H.58v3.882A8.584,8.584,0,0,0,.729-.049a2.062,2.062,0,0,0,.407.8,2.761,2.761,0,0,0,2.423.865,3.716,3.716,0,0,0,1.4-.22A2.021,2.021,0,0,0,6.257-.1a9.527,9.527,0,0,0,.121-1.856Zm8.536,7.268V-5.775h-2.2L11.407-.82,10.091-5.775h-2.2V1.493H9.259V-4.223L10.7,1.493h1.41l1.448-5.716V1.493Zm8.459,0V-5.775h-2.2L19.866-.82,18.55-5.775h-2.2V1.493h1.366V-4.223l1.437,5.716h1.41l1.448-5.716V1.493Zm9.385,0L29.845-5.775H28.3l-2.83,7.268h1.553l.6-1.652h2.907l.628,1.652Zm-4.68-2.874.975-2.693L30.06-1.381ZM35.039.271v-5.98h-1.47v7.2h5.11V.271Zm13.09.92A4.959,4.959,0,0,1,46.945.568a3.755,3.755,0,0,0,.9-2.709c0-2.362-1.355-3.755-3.513-3.755S40.8-4.5,40.8-2.141c0,2.379,1.338,3.761,3.579,3.761a3.848,3.848,0,0,0,1.575-.314c.606.407.936.622.986.644a3.264,3.264,0,0,0,.644.27ZM43.972-.159A3.907,3.907,0,0,1,44.88.3a1.774,1.774,0,0,1-.595.1c-1.145,0-1.971-.842-1.971-2.538,0-1.674.809-2.5,2.015-2.5s2,.826,2,2.5a2.827,2.827,0,0,1-.562,1.883A4.993,4.993,0,0,0,44.385-1ZM54.788-5.775h-1.47V-1.75a7.9,7.9,0,0,1-.066,1.228c-.088.5-.485.887-1.322.887a1.292,1.292,0,0,1-1.421-.986,8.965,8.965,0,0,1-.05-1.211V-5.775h-1.47v3.882a8.584,8.584,0,0,0,.149,1.845,2.062,2.062,0,0,0,.407.8,2.761,2.761,0,0,0,2.423.865,3.715,3.715,0,0,0,1.4-.22A2.021,2.021,0,0,0,54.666-.1a9.527,9.527,0,0,0,.121-1.856Zm8.6,7.268,1.768-7.268H63.682L62.564-.693,61.292-5.775H59.541l-1.322,5-1.1-5h-1.5l1.735,7.268h1.591l1.437-5.435,1.454,5.435Zm9.071,0L69.548-5.775H68L65.17,1.493h1.553l.6-1.652H70.23l.628,1.652ZM67.78-1.381l.975-2.693,1.008,2.693Zm6.879,2.874V-5.775h-1.47V1.493Zm7.164,0V-5.775h-1.36V-.919L77.49-5.775H76.058V1.493h1.366V-3.248l2.929,4.741Z" transform="translate(6025.221 4007.543)" stroke="#000" stroke-width="0.2"/>
    <path id="Path_13626" data-name="Path 13626" d="M6.912-13.45a1.35,1.35,0,0,0-.9.323,1.015,1.015,0,0,0-.36.777,1.02,1.02,0,0,0,.36.786,1.345,1.345,0,0,0,.9.314,1.337,1.337,0,0,0,.89-.314,1.029,1.029,0,0,0,.37-.786,1.025,1.025,0,0,0-.37-.777A1.343,1.343,0,0,0,6.912-13.45ZM11.974-4V-9.589H9.513V-.853a.625.625,0,0,1-.24.48.9.9,0,0,1-.56.21H5.3a.753.753,0,0,1-.79-.69V-5.728H2.05V-.853a2.654,2.654,0,0,0,.95,2,3.429,3.429,0,0,0,2.3.839H8.713a3.506,3.506,0,0,0,2.3-.839,2.664,2.664,0,0,0,.96-2v-1h1.711V-4Zm8.915-5.591H18.429v4.9a.681.681,0,0,1-.65.69H13.627v2.149h4.151a3.19,3.19,0,0,0,2.2-.839,2.72,2.72,0,0,0,.91-2ZM15.908-.181a1.345,1.345,0,0,0-.9.314,1.02,1.02,0,0,0-.36.786,1.015,1.015,0,0,0,.36.777,1.416,1.416,0,0,0,1.8,0,1.015,1.015,0,0,0,.36-.777,1.02,1.02,0,0,0-.36-.786A1.345,1.345,0,0,0,15.908-.181Zm3.711,0a1.345,1.345,0,0,0-.9.314,1.02,1.02,0,0,0-.36.786,1.015,1.015,0,0,0,.36.777,1.35,1.35,0,0,0,.9.323,1.343,1.343,0,0,0,.89-.323,1.025,1.025,0,0,0,.37-.777,1.029,1.029,0,0,0-.37-.786A1.337,1.337,0,0,0,19.619-.181Zm6.624-9.408a3.505,3.505,0,0,0-2.291.839,2.682,2.682,0,0,0-.96,2.009v2.053a2.664,2.664,0,0,0,.96,2,3.46,3.46,0,0,0,2.291.839h3.331v1a.656.656,0,0,1-.24.489.883.883,0,0,1-.57.21H26.222V1.994h2.541a3.512,3.512,0,0,0,2.3-.839,2.682,2.682,0,0,0,.96-2.009v-1h1.861V-4H32.025V-6.741a2.682,2.682,0,0,0-.96-2.009,3.512,3.512,0,0,0-2.3-.839ZM28.763-7.44a.883.883,0,0,1,.57.21.656.656,0,0,1,.24.489V-4H26.242a.877.877,0,0,1-.55-.21.625.625,0,0,1-.24-.48V-6.741a.76.76,0,0,1,.79-.7ZM38.979-9.589H36.488V-4.5a.656.656,0,0,1-.62.507H33.827v2.149h2.041a3.222,3.222,0,0,0,1.851-.559,3.287,3.287,0,0,0,1.871.559H41.62V-4H39.589a.612.612,0,0,1-.61-.507Zm-3.1,9.408a1.337,1.337,0,0,0-.89.314,1.029,1.029,0,0,0-.37.786,1.025,1.025,0,0,0,.37.777,1.343,1.343,0,0,0,.89.323,1.35,1.35,0,0,0,.9-.323,1.015,1.015,0,0,0,.36-.777,1.02,1.02,0,0,0-.36-.786A1.345,1.345,0,0,0,35.878-.181Zm3.711,0a1.345,1.345,0,0,0-.9.314,1.02,1.02,0,0,0-.36.786,1.015,1.015,0,0,0,.36.777,1.416,1.416,0,0,0,1.8,0A1.015,1.015,0,0,0,40.85.92a1.02,1.02,0,0,0-.36-.786A1.345,1.345,0,0,0,39.589-.181Zm6.4-13.278a1.35,1.35,0,0,0-.9.323,1.015,1.015,0,0,0-.36.777,1.02,1.02,0,0,0,.36.786,1.345,1.345,0,0,0,.9.314,1.345,1.345,0,0,0,.9-.314,1.02,1.02,0,0,0,.36-.786,1.015,1.015,0,0,0-.36-.777A1.35,1.35,0,0,0,45.993-13.459Zm3.721,0a1.35,1.35,0,0,0-.9.323,1.015,1.015,0,0,0-.36.777,1.02,1.02,0,0,0,.36.786,1.345,1.345,0,0,0,.9.314,1.337,1.337,0,0,0,.89-.314,1.029,1.029,0,0,0,.37-.786,1.025,1.025,0,0,0-.37-.777A1.343,1.343,0,0,0,49.714-13.459Zm-3.151,3.87a3.512,3.512,0,0,0-2.3.839,2.682,2.682,0,0,0-.96,2.009v2.053a2.486,2.486,0,0,0,.09.69H41.561v2.149H54.226V-4H52.4V-6.741a2.682,2.682,0,0,0-.96-2.009,3.485,3.485,0,0,0-2.291-.839ZM49.144-7.44a.76.76,0,0,1,.79.7V-4H46.563a.889.889,0,0,1-.57-.21.625.625,0,0,1-.24-.48V-6.741a.656.656,0,0,1,.24-.489.844.844,0,0,1,.57-.21Zm10.256-6H56.939v8.753a.753.753,0,0,1-.79.69H54.168v2.149h1.981a3.441,3.441,0,0,0,2.291-.839,2.664,2.664,0,0,0,.96-2ZM63.962-1.849V-13.441H61.5V-1.849ZM74.087-9.58a3.485,3.485,0,0,0-2.291.839,2.648,2.648,0,0,0-.96,2.009v2.044a2.437,2.437,0,0,0,.12.795,3.359,3.359,0,0,0-1.721,1,2.589,2.589,0,0,0-.68,1.738V1.994h2.461V-1.15a.76.76,0,0,1,.79-.7h4.8a3.467,3.467,0,0,0,2.3-.839,2.664,2.664,0,0,0,.96-2V-6.732a2.682,2.682,0,0,0-.96-2.009,3.512,3.512,0,0,0-2.3-.839Zm2.521,2.149a.77.77,0,0,1,.8.7v2.044a.625.625,0,0,1-.24.48.9.9,0,0,1-.56.21H73.3V-6.732a.693.693,0,0,1,.24-.489.811.811,0,0,1,.55-.21Zm8.155-9.443v-.681h-1.41a1.038,1.038,0,0,0-.71.262.861.861,0,0,0-.3.629v.638a.572.572,0,0,0,.03.227h-.4v.664h2.791V-15.8h-1.41a.236.236,0,0,1-.24-.227v-.638a.222.222,0,0,1,.24-.21ZM84.6-1.849V-13.441H82.142V-1.849Z" transform="translate(6023.024 3993.496)"/>
  </g>
</svg>
