<svg xmlns="http://www.w3.org/2000/svg" width="29.866" height="45.433" viewBox="0 0 29.866 45.433">
  <g id="Group_12653" data-name="Group 12653" transform="translate(-279.067 -250.403)">
    <g id="noun-contract-1641910" transform="translate(198.148 213.028)">
      <path id="Path_13576" data-name="Path 13576" d="M189.1,37.375H160.119a.488.488,0,0,0-.441.524V82.284a.488.488,0,0,0,.441.524H189.1a.488.488,0,0,0,.441-.524V37.9A.488.488,0,0,0,189.1,37.375Zm-.441,44.384h-28.1V38.424h28.1Z" transform="translate(-78.759)" fill="#fff"/>
      <path id="Path_13577" data-name="Path 13577" d="M220.292,81.764h5.181a.494.494,0,0,0,.494-.494V76.089a.494.494,0,0,0-.494-.494h-5.181a.494.494,0,0,0-.494.494v5.181A.494.494,0,0,0,220.292,81.764Zm.494-5.181h4.195v4.194h-4.195Z" transform="translate(-134.274 -34.853)" fill="#fff"/>
      <path id="Path_13578" data-name="Path 13578" d="M220.292,193.764h5.181a.494.494,0,0,0,.494-.494v-5.181a.494.494,0,0,0-.494-.494h-5.181a.494.494,0,0,0-.494.494v5.181A.494.494,0,0,0,220.292,193.764Zm.494-5.181h4.195v4.194h-4.195Z" transform="translate(-134.274 -136.016)" fill="#fff"/>
      <path id="Path_13579" data-name="Path 13579" d="M220.292,305.764h5.181a.494.494,0,0,0,.494-.494v-5.181a.493.493,0,0,0-.494-.494h-5.181a.494.494,0,0,0-.494.494v5.181A.493.493,0,0,0,220.292,305.764Zm.494-5.181h4.195v4.194h-4.195Z" transform="translate(-134.274 -237.426)" fill="#fff"/>
      <path id="Path_13580" data-name="Path 13580" d="M220.292,417.764h5.181a.494.494,0,0,0,.494-.494v-5.181a.493.493,0,0,0-.494-.494h-5.181a.494.494,0,0,0-.494.494v5.181A.493.493,0,0,0,220.292,417.764Zm.494-5.181h4.195v4.194h-4.195Z" transform="translate(-134.274 -338.572)" fill="#fff"/>
      <path id="Path_13581" data-name="Path 13581" d="M319.682,76.585h12.584a.494.494,0,0,0,0-.987H319.682a.493.493,0,1,0,0,.987Z" transform="translate(-226.734 -34.855)" fill="#fff"/>
      <path id="Path_13582" data-name="Path 13582" d="M319.682,110.184h7.865a.494.494,0,0,0,0-.987h-7.865a.493.493,0,1,0,0,.987Z" transform="translate(-226.25 -65.493)" fill="#fff"/>
      <path id="Path_13583" data-name="Path 13583" d="M319.682,194.184h12.584a.494.494,0,0,0,0-.987H319.682a.493.493,0,1,0,0,.987Z" transform="translate(-226.734 -141.212)" fill="#fff"/>
      <path id="Path_13584" data-name="Path 13584" d="M319.682,227.784h7.865a.494.494,0,0,0,0-.987h-7.865a.493.493,0,1,0,0,.987Z" transform="translate(-226.25 -171.662)" fill="#fff"/>
      <path id="Path_13585" data-name="Path 13585" d="M319.682,300.584h12.584a.494.494,0,0,0,0-.987H319.682a.493.493,0,1,0,0,.987Z" transform="translate(-226.734 -237.636)" fill="#fff"/>
      <path id="Path_13586" data-name="Path 13586" d="M319.682,334.184h7.865a.494.494,0,0,0,0-.987h-7.865a.493.493,0,1,0,0,.987Z" transform="translate(-226.25 -268.086)" fill="#fff"/>
      <path id="Path_13587" data-name="Path 13587" d="M319.682,412.584h12.584a.494.494,0,0,0,0-.987H319.682a.493.493,0,1,0,0,.987Z" transform="translate(-226.734 -339.136)" fill="#fff"/>
      <path id="Path_13588" data-name="Path 13588" d="M319.682,446.184h7.865a.494.494,0,0,0,0-.987h-7.865a.493.493,0,1,0,0,.987Z" transform="translate(-226.25 -369.212)" fill="#fff"/>
      <path id="Path_13589" data-name="Path 13589" d="M238.06,94.885,236.7,96.3l-.318-.381a.493.493,0,1,0-.758.632l.67.8a.494.494,0,0,0,.361.177h.018a.491.491,0,0,0,.355-.151l1.742-1.809a.493.493,0,1,0-.71-.683Z" transform="translate(-148.7 -52.304)" fill="#fff"/>
      <path id="Path_13590" data-name="Path 13590" d="M238.06,206.882l-1.36,1.412-.318-.381a.493.493,0,0,0-.758.632l.67.8a.494.494,0,0,0,.361.177h.018a.491.491,0,0,0,.355-.151l1.742-1.809a.493.493,0,1,0-.71-.683Z" transform="translate(-148.7 -153.434)" fill="#fff"/>
      <path id="Path_13591" data-name="Path 13591" d="M238.06,318.886,236.7,320.3l-.318-.38a.493.493,0,1,0-.758.631l.67.8a.49.49,0,0,0,.361.177h.018a.491.491,0,0,0,.355-.151l1.742-1.809a.493.493,0,1,0-.71-.684Z" transform="translate(-148.7 -254.908)" fill="#fff"/>
      <path id="Path_13592" data-name="Path 13592" d="M238.06,430.883,236.7,432.3l-.318-.38a.493.493,0,1,0-.758.631l.67.8a.49.49,0,0,0,.361.177h.018a.491.491,0,0,0,.355-.151l1.742-1.809a.493.493,0,1,0-.71-.684Z" transform="translate(-148.7 -356.021)" fill="#fff"/>
    </g>
  </g>
</svg>
