<svg xmlns="http://www.w3.org/2000/svg" width="16" height="16" viewBox="0 0 16 16">
  <path id="info" d="M8,0a8,8,0,1,0,8,8A8.009,8.009,0,0,0,8,0Zm.615,12.615a.615.615,0,0,1-1.231,0V12a.615.615,0,1,1,1.231,0ZM9.5,7.559a2.044,2.044,0,0,0-.884,1.72v.874a.615.615,0,0,1-1.231,0V9.279A3.24,3.24,0,0,1,8.833,6.525a1.532,1.532,0,0,0,.706-1.316A1.567,1.567,0,0,0,8.022,3.693a1.463,1.463,0,0,0-1.1.442,1.529,1.529,0,0,0-.458,1.1.615.615,0,0,1-1.231,0A2.77,2.77,0,0,1,8,2.462h.04a2.788,2.788,0,0,1,2.73,2.73A2.755,2.755,0,0,1,9.5,7.559Z" fill="#fff"/>
</svg>
