<svg id="translate_black_24dp" xmlns="http://www.w3.org/2000/svg" width="19.088" height="19.088" viewBox="0 0 19.088 19.088">
  <path id="Path_13563" data-name="Path 13563" d="M0,0H19.088V19.088H0Z" fill="none"/>
  <path id="Path_13564" data-name="Path 13564" d="M10.784,13.227,8.69,11.071l.025-.026a15.224,15.224,0,0,0,3.058-5.609h2.415V3.718H8.418V2H6.77V3.718H1V5.427h9.207a13.63,13.63,0,0,1-2.613,4.6,13.471,13.471,0,0,1-1.9-2.878H4.042A15.163,15.163,0,0,0,6.5,11.071L2.3,15.383l1.17,1.22,4.121-4.295,2.563,2.671.626-1.752Zm4.641-4.355H13.776L10.067,19.18h1.649l.923-2.577h3.915l.931,2.577h1.649Zm-2.16,6.013L14.6,11.165l1.335,3.719Z" transform="translate(-0.523 -1.046)" fill="#f2f3f7"/>
</svg>
