<svg id="location_on_black_24dp_1_" data-name="location_on_black_24dp (1)" xmlns="http://www.w3.org/2000/svg" width="21.407" height="21.407" viewBox="0 0 21.407 21.407">
  <path id="Path_13561" data-name="Path 13561" d="M0,0H21.407V21.407H0Z" fill="none"/>
  <path id="Path_13562" data-name="Path 13562" d="M11.244,2A6.239,6.239,0,0,0,5,8.244c0,4.683,6.244,11.6,6.244,11.6s6.244-6.913,6.244-11.6A6.239,6.239,0,0,0,11.244,2ZM6.784,8.244a4.46,4.46,0,0,1,8.92,0c0,2.569-2.569,6.413-4.46,8.813C9.388,14.675,6.784,10.786,6.784,8.244Z" transform="translate(-0.54 -0.216)" fill="#57c4af"/>
  <circle id="Ellipse_31" data-name="Ellipse 31" cx="2.23" cy="2.23" r="2.23" transform="translate(8.474 5.798)" fill="#57c4af"/>
</svg>
