<svg xmlns="http://www.w3.org/2000/svg" width="25.549" height="45.388" viewBox="0 0 25.549 45.388">
  <g id="noun-mobile-phone-4466928" transform="translate(-96.383 -68.602)">
    <path id="Path_13575" data-name="Path 13575" d="M253.484,68.6H234.079c-1.691,0-3.072,1.653-3.072,3.682v38.024c0,2.029,1.371,3.682,3.072,3.682h19.406c1.691,0,3.072-1.653,3.072-3.682V72.284c0-2.038-1.371-3.682-3.072-3.682Zm-12.859,1.756a.7.7,0,0,1,.535-.272h5.232a.855.855,0,0,1,.761.939,1.006,1.006,0,0,1-.226.648.7.7,0,0,1-.535.273H241.16a.855.855,0,0,1-.761-.939A1.006,1.006,0,0,1,240.625,70.358Zm3.156,42.88a1.5,1.5,0,1,1,1.063-.44,1.5,1.5,0,0,1-1.063.44Zm10.774-4.772a.668.668,0,0,1-.592.714H233.608a.667.667,0,0,1-.592-.714V74.125a.667.667,0,0,1,.592-.714h20.345a.667.667,0,0,1,.592.714Z" transform="translate(-134.624)" fill="#fff"/>
  </g>
</svg>
