<svg xmlns="http://www.w3.org/2000/svg" width="55.327" height="34.961" viewBox="0 0 55.327 34.961">
  <g id="Group_11914" data-name="Group 11914" transform="translate(0.401 0.4)">
    <g id="sport-car-svgrepo-com">
      <path id="Path_11452" data-name="Path 11452" d="M158.309,187.578H136.781a.863.863,0,1,0,0,1.726H158.31a.863.863,0,1,0,0-1.726Z" transform="translate(-120.282 -176.182)" fill="#fff" stroke="#fff" stroke-width="0.8"/>
      <path id="Path_11453" data-name="Path 11453" d="M34.067,221.578H30.879a.863.863,0,1,0,0,1.726h3.189a3.4,3.4,0,0,1,3.287,2.535H31.1a.863.863,0,1,0,0,1.726h7.228a.863.863,0,0,0,.863-.863A5.129,5.129,0,0,0,34.067,221.578Z" transform="translate(-26.563 -206.271)" fill="#fff" stroke="#fff" stroke-width="0.8"/>
      <path id="Path_11454" data-name="Path 11454" d="M369.332,223.3h3.189a.863.863,0,0,0,0-1.726h-3.189a5.129,5.129,0,0,0-5.123,5.124.863.863,0,0,0,.863.863H372.3a.863.863,0,1,0,0-1.726h-6.255A3.4,3.4,0,0,1,369.332,223.3Z" transform="translate(-322.311 -206.271)" fill="#fff" stroke="#fff" stroke-width="0.8"/>
      <path id="Path_11455" data-name="Path 11455" d="M52.765,100.03a6.337,6.337,0,0,0-4.624-1.96.861.861,0,0,0-.23.031l-2.773.766L41.053,91.02a5.039,5.039,0,0,0-4.128-2.505H17.6a5.039,5.039,0,0,0-4.128,2.505L9.387,98.867,6.615,98.1a.861.861,0,0,0-.23-.031,6.35,6.35,0,0,0-6.378,6.672l.626,12.484a.863.863,0,0,0,.862.82h.288v3.767a.863.863,0,0,0,.863.863h9.078a.863.863,0,0,0,.863-.863v-1.179a.863.863,0,0,0-1.726,0v.316H3.507v-2.9h47.51v2.9H43.665v-.316a.863.863,0,0,0-1.726,0v1.179a.863.863,0,0,0,.863.863H51.88a.863.863,0,0,0,.863-.863v-3.767h.288a.863.863,0,0,0,.862-.82l.626-12.489a6.337,6.337,0,0,0-1.754-4.707Zm.031,4.625L52.21,116.32H2.315L1.73,104.661A4.624,4.624,0,0,1,6.273,99.8l3.319.917.006,0,3.219.889a.863.863,0,1,0,.459-1.663l-2.189-.6L15,91.817a3.317,3.317,0,0,1,2.6-1.576H36.925a3.318,3.318,0,0,1,2.6,1.576l3.914,7.52-2.189.6a.863.863,0,1,0,.459,1.663L48.253,99.8a4.623,4.623,0,0,1,4.543,4.858Z" transform="translate(0 -88.515)" fill="#fff" stroke="#fff" stroke-width="0.8"/>
      <path id="Path_11456" data-name="Path 11456" d="M411.839,143.3h3.006a.863.863,0,1,0,0-1.726h-3.006a.863.863,0,1,0,0,1.726Z" transform="translate(-363.698 -135.474)" fill="#fff" stroke="#fff" stroke-width="0.8"/>
      <path id="Path_11457" data-name="Path 11457" d="M22.739,143.3h3.006a.863.863,0,0,0,0-1.726H22.739a.863.863,0,0,0,0,1.726Z" transform="translate(-19.359 -135.474)" fill="#fff" stroke="#fff" stroke-width="0.8"/>
      <path id="Path_11458" data-name="Path 11458" d="M166.307,280.171H147.168a.863.863,0,0,0-.863.863v2.306a.863.863,0,0,0,1.726,0V281.9h17.413v1.443a.863.863,0,0,0,1.726,0v-2.306A.863.863,0,0,0,166.307,280.171Z" transform="translate(-129.474 -258.123)" fill="#fff" stroke="#fff" stroke-width="0.8"/>
      <path id="Path_11459" data-name="Path 11459" d="M198.329,229.3a.863.863,0,1,0,0-1.726H188.76a.863.863,0,0,0,0,1.726Z" transform="translate(-166.282 -211.581)" fill="#fff" stroke="#fff" stroke-width="0.8"/>
    </g>
  </g>
</svg>
