<svg id="noun_client_160795" xmlns="http://www.w3.org/2000/svg" width="55.476" height="32.287" viewBox="0 0 55.476 32.287">
  <g id="Group_12401" data-name="Group 12401" transform="translate(0 0)">
    <g id="Group_12400" data-name="Group 12400">
      <path id="Path_13444" data-name="Path 13444" d="M71.843,52.763c-1.067-2.246-2.155-4.486-3.223-6.731-.553-1.178-1.089-2.365-1.622-3.548a.981.981,0,0,0-1.608-.494c-1.372.938-5.507,3.769-7.848,3.795a13.24,13.24,0,0,1-3.658-.479,21.485,21.485,0,0,1-2.3-.773A10.993,10.993,0,0,0,48.2,43.54a2.426,2.426,0,0,0-1.771.449l-.1.09-.953.873h0L41.715,48.3c-.07.065-.135.135-.2.2a1.942,1.942,0,0,0-.23.19l-3.657,3.348a2.021,2.021,0,0,0-.175.179.913.913,0,0,0-.109.124,1.2,1.2,0,0,0-.22.454,2.909,2.909,0,0,0,2.066,2.889,4.953,4.953,0,0,0,3.946-.859c.718-.523,1.506-1.118,2.305-1.721.22-.17.44-.335.659-.5a.335.335,0,0,1,.045-.034c.209-.165.419-.325.629-.483,0,0,0-.006,0-.006a3.907,3.907,0,0,1,2.1-.6,3.937,3.937,0,0,1,2.52.893c.015,0,.025.019.04.03.069.061.145.126.214.19l.055.055c.17.14.335.294.5.455.474.449.923.918,1.363,1.407l1.641,1.647a2.837,2.837,0,0,1,.2.219c.074.065.143.125.213.2l3.508,3.5c0,.006,0,.006,0,.006l1.523,1.522a1.2,1.2,0,0,0,1.407-.24c.749-.623,1.9-1.533,2.663-2.136,1.134-.9,5.589-4.079,6.737-4.952A1.111,1.111,0,0,0,71.843,52.763Z" transform="translate(-16.522 -41.743)" fill="#fff"/>
      <path id="Path_13445" data-name="Path 13445" d="M22.529,71.126a2,2,0,0,0-2.83,0l-3.507,3.507a2,2,0,0,0,2.829,2.832l3.507-3.508A2,2,0,0,0,22.529,71.126Z" transform="translate(-6.96 -54.554)" fill="#fff"/>
      <path id="Path_13446" data-name="Path 13446" d="M30.041,76.818a2,2,0,0,0-2.831,0L23.7,80.325a2,2,0,0,0,2.83,2.83l3.507-3.507A2,2,0,0,0,30.041,76.818Z" transform="translate(-10.302 -57.087)" fill="#fff"/>
      <path id="Path_13447" data-name="Path 13447" d="M37.905,81.472a2,2,0,0,0-2.83,0L31.569,84.98a2,2,0,0,0,2.83,2.83L37.905,84.3A2,2,0,0,0,37.905,81.472Z" transform="translate(-13.801 -59.157)" fill="#fff"/>
      <path id="Path_13448" data-name="Path 13448" d="M45.825,89.511a1.975,1.975,0,0,0,.156-2.016,1.987,1.987,0,0,0-.924-.924,1.984,1.984,0,0,0-1.912.092,1.778,1.778,0,0,0-.377.293l-3.505,3.512a2,2,0,1,0,2.829,2.83L45.6,89.791A1.776,1.776,0,0,0,45.825,89.511Z" transform="translate(-17.224 -61.597)" fill="#fff"/>
      <path id="Path_13449" data-name="Path 13449" d="M38.836,58.048a1.149,1.149,0,0,0-.13-.129l-.735-.737-.129-.128L36.7,55.908l-.658-.651-.969-.976-.058-.052-.286-.286-.4-.4a2.351,2.351,0,0,0-.56-.429,2.283,2.283,0,0,0-.794-.306,2.246,2.246,0,0,0-.591-.072A2.689,2.689,0,0,0,31,53.118a1.582,1.582,0,0,0-.274.182,2.177,2.177,0,0,0-.286.247.258.258,0,0,0-.046.046c-.246.215-.507.429-.76.637s-.508.4-.768.592c-.15.11-.306.228-.461.332v.006a17.819,17.819,0,0,1-2.284,1.366c-2.595,1.261-5.21.683-6.725-1.977a1.958,1.958,0,0,1-.15-.319,2.5,2.5,0,0,1-.117-.436,2.644,2.644,0,0,1,.754-2.3q2.489-2.341,4.97-4.7c.617-.579,1.242-1.165,1.873-1.77.157-.15.319-.3.481-.455a2.443,2.443,0,0,0-1.541-.513,1.353,1.353,0,0,0-.17-.013,20.656,20.656,0,0,0-5.951.845c-.084.019-.162.046-.247.065l-.137.039c-.254.091-.5.169-.754.234l-.267.078a10.311,10.311,0,0,1-1.64.4,9.976,9.976,0,0,1-2.022.085,9.894,9.894,0,0,1-3.331-1.054,38.966,38.966,0,0,1-4.515-2.745,1.126,1.126,0,0,0-.89-.221,1.159,1.159,0,0,0-.722.716c-.533,1.183-1.066,2.374-1.62,3.551C2.34,48.279,1.254,50.516.186,52.76a1.109,1.109,0,0,0,.371,1.522c1.151.878,5.606,4.059,6.738,4.956.169.137.358.286.559.442l.078.058c.365.266.683.5.944.7l3.011-3.01a3.243,3.243,0,0,1,4.078-.417,3.132,3.132,0,0,1,.513.417,2.133,2.133,0,0,1,.2.22c.046.053.084.1.124.155s.084.119.123.177.084.149.124.214a.53.53,0,0,1,.033.064c.026.058.059.117.079.17a1.556,1.556,0,0,1,.064.155c.013.053.032.1.046.144a1.155,1.155,0,0,1,.065.245c.019.072.032.137.046.209a1.928,1.928,0,0,1,.033.273,1.7,1.7,0,0,1,.013.319.124.124,0,0,1,.039-.013,1.655,1.655,0,0,1,.247-.058,1.321,1.321,0,0,1,.228-.033.691.691,0,0,1,.163-.019c.084-.007.163-.013.247-.013s.2.007.293.013c.026,0,.052.007.078.007a3.259,3.259,0,0,1,.559.117,2.882,2.882,0,0,1,.735.325.019.019,0,0,1,.02.013c.058.033.111.072.163.1a1.37,1.37,0,0,1,.156.117.977.977,0,0,1,.123.1,2.066,2.066,0,0,1,.169.15c.072.072.131.144.2.215.026.033.051.065.077.1a1.808,1.808,0,0,1,.143.194,1.666,1.666,0,0,1,.143.243,2.739,2.739,0,0,1,.247.591,1.739,1.739,0,0,1,.066.246,1.825,1.825,0,0,1,.045.253,3.174,3.174,0,0,1,1.151-.214,3.233,3.233,0,0,1,3.1,2.277,2.963,2.963,0,0,1,.137.67c.006.09.013.182.013.266a3.122,3.122,0,0,1,.416-.11c.084-.019.168-.026.254-.039H26.7a2.149,2.149,0,0,1,.292-.019c.066,0,.13,0,.2.006a3.257,3.257,0,0,1,3.05,3.247,2.2,2.2,0,0,1-.019.3.011.011,0,0,1,0,.019,1.775,1.775,0,0,1-.026.208c0,.013-.007.019-.007.033a1.572,1.572,0,0,1-.084.364,1.688,1.688,0,0,1-.078.235.049.049,0,0,1-.006.019c-.013.033-.026.072-.046.111s-.045.1-.065.143-.039.072-.058.11a3.014,3.014,0,0,1-.273.423.572.572,0,0,1-.052.065,1.066,1.066,0,0,1-.079.089,1.2,1.2,0,0,1-.155.176L26.42,73.685a2.722,2.722,0,0,0,1.321.345,2.682,2.682,0,0,0,1.73-.618.135.135,0,0,0,.033-.026,1.963,1.963,0,0,0,.176-.163,2.794,2.794,0,0,0,.624-.95,2.748,2.748,0,0,0,.175-.91,2.736,2.736,0,0,0,4.046-2.855,2.747,2.747,0,0,0,4.461-2.66,2.707,2.707,0,0,0,3.357-.411,2.743,2.743,0,0,0,0-3.882Z" transform="translate(-0.031 -41.743)" fill="#fff"/>
    </g>
  </g>
</svg>
